<svg id="Слой_2" data-name="Слой 2" xmlns="http://www.w3.org/2000/svg" viewBox="0 0 101 101"><title>Artboard 2 copy 13</title><path d="M98.15,39.56a1.5,1.5,0,0,0-1.9-.94l-8.48,2.86h0L61.86,50.22c-.43-13.84-5.54-21.45-14.51-21.45A20.33,20.33,0,0,0,38.27,31,16.41,16.41,0,0,1,33,32.59,11.64,11.64,0,0,1,44.63,21.07a1.5,1.5,0,0,0,0-3A14.64,14.64,0,0,0,30,32.54a11,11,0,0,1-3.79-1.45A16.82,16.82,0,0,0,17,28.77c-10,0-15.53,8.31-15.53,23.39A30.23,30.23,0,0,0,31.71,82.35,29.9,29.9,0,0,0,49,76.86a33,33,0,0,0,3.84,2.25A32.53,32.53,0,0,0,98.15,39.56ZM86.35,57.7,76.29,52.07a1.5,1.5,0,1,0-1.46,2.62L85,60.39a20.46,20.46,0,0,1-9.52,8.43L71.36,57a1.5,1.5,0,0,0-2.83,1L72.67,69.8A20.49,20.49,0,0,1,48.37,57.93l38.85-13.1A20.46,20.46,0,0,1,86.35,57.7ZM31.71,79.35A27.22,27.22,0,0,1,4.51,52.15c0-9.3,2.17-20.39,12.53-20.39a13.91,13.91,0,0,1,7.76,2A13.52,13.52,0,0,0,30,35.55v6.73c-4.41-.5-6.15-2.59-6.25-2.71a1.5,1.5,0,0,0-2.39,1.81c.12.16,3.09,4,10.56,4a13.59,13.59,0,0,0,9.62-3.9,1.5,1.5,0,0,0-2.22-2A10.5,10.5,0,0,1,33,42.33V35.6a18.8,18.8,0,0,0,6.49-1.91,17.31,17.31,0,0,1,7.86-1.93c9.65,0,11.42,11.77,11.55,19.45l-13,4.37h0l-8.48,2.86a1.5,1.5,0,0,0-.94,1.9A32.32,32.32,0,0,0,46.5,75,26.93,26.93,0,0,1,31.71,79.35Zm45-1.4A29.57,29.57,0,0,1,39.85,60.8l5.68-1.92A23.56,23.56,0,0,0,67.3,73.54,23.6,23.6,0,0,0,90.09,43.87L95.75,42A29.57,29.57,0,0,1,76.76,77.94Z"/></svg>