<?xml version="1.0" encoding="utf-8"?>
<!-- Generator: Adobe Illustrator 23.0.3, SVG Export Plug-In . SVG Version: 6.00 Build 0)  -->
<svg version="1.1" id="Icons" xmlns="http://www.w3.org/2000/svg" xmlns:xlink="http://www.w3.org/1999/xlink" x="0px" y="0px"
	 viewBox="0 0 32 32" style="enable-background:new 0 0 32 32;" xml:space="preserve">
<style type="text/css">
	.st0{fill:none;stroke:#000000;stroke-width:2;stroke-linecap:round;stroke-linejoin:round;stroke-miterlimit:10;}
</style>
<path class="st0" d="M16,22c-1.5,0-2.8-0.4-4-1.1l1,3.1v5h6v-5l1-3.1C18.8,21.6,17.5,22,16,22z"/>
<path class="st0" d="M22.6,22.6c0.6,0.3,1.2,0.4,1.9,0.4c2.5,0,4.5-2,4.5-4.5c0-1.9-1.2-3.5-2.8-4.2c1.1-0.7,1.8-1.9,1.8-3.3
	c0-2.2-1.8-4-4-4c-0.5,0-1.1,0.1-1.5,0.3C21.4,4.8,18.9,3,16,3s-5.4,1.8-6.5,4.3C9.1,7.1,8.5,7,8,7c-2.2,0-4,1.8-4,4
	c0,1.4,0.7,2.6,1.8,3.3C4.2,15,3,16.6,3,18.5C3,21,5,23,7.5,23c0.7,0,1.3-0.2,1.9-0.4c0.9,1.3,2.1,2.3,3.6,2.9"/>
<path class="st0" d="M10.7,20c1.4,1.2,3.3,2,5.3,2s3.9-0.8,5.3-2"/>
</svg>
